<svg width="250" height="171" viewBox="0 0 250 171" fill="none" xmlns="http://www.w3.org/2000/svg">
<path d="M187.145 96.0286C188.04 96.5046 189.151 96.165 189.627 95.2699C190.103 94.3749 189.764 93.2634 188.869 92.7874C187.974 92.3113 186.862 92.651 186.386 93.546C185.91 94.4411 186.25 95.5526 187.145 96.0286Z" fill="#FF6584"/>
<path d="M185.81 116.528C186.705 117.004 187.816 116.664 188.292 115.769C188.768 114.874 188.429 113.762 187.534 113.286C186.639 112.81 185.527 113.15 185.051 114.045C184.575 114.94 184.915 116.052 185.81 116.528Z" fill="#C8FF7E"/>
<path d="M180.295 68.256C181.935 69.2657 183.313 70.6497 184.315 72.2946C185.317 73.9395 185.915 75.7985 186.059 77.7192C186.098 78.262 186.192 78.886 185.749 79.2941C185.585 79.4537 185.372 79.553 185.145 79.5758C184.917 79.5987 184.689 79.5436 184.497 79.4197C184.273 79.2328 184.118 78.9775 184.055 78.6934C183.992 78.4093 184.024 78.1122 184.147 77.8483C184.269 77.5843 184.476 77.3683 184.734 77.2336C184.992 77.0989 185.287 77.0531 185.574 77.1033C187.018 77.2272 187.792 78.6343 188.422 79.7638C189.856 82.3366 191.58 84.8907 194.141 86.4585C196.511 87.9097 199.648 88.3463 202.14 86.9471C202.575 86.7036 202.166 86.0441 201.733 86.2878C199.261 87.6766 196.128 86.9794 193.926 85.3908C192.63 84.4148 191.51 83.2241 190.615 81.8702C190.143 81.1842 189.709 80.4722 189.299 79.7476C188.928 79.0219 188.493 78.3306 187.999 77.6817C187.147 76.6543 185.685 75.9209 184.376 76.5476C183.154 77.1317 182.851 79.0246 183.896 79.9272C184.129 80.1169 184.406 80.2458 184.701 80.3023C184.997 80.3588 185.301 80.3411 185.588 80.2509C185.875 80.1607 186.135 80.0008 186.345 79.7854C186.555 79.57 186.708 79.306 186.791 79.0169C186.974 78.3875 186.842 77.6064 186.758 76.9679C186.509 75.0454 185.831 73.2033 184.775 71.5773C183.72 69.9513 182.313 68.5828 180.658 67.5726C180.23 67.3169 179.867 68.0015 180.295 68.256Z" fill="#CCCCCC"/>
<path d="M233.079 65.3136C231.774 64.5107 230.679 63.4101 229.881 62.102C229.084 60.7938 228.609 59.3155 228.493 57.788C228.463 57.3561 228.388 56.8594 228.74 56.5354C228.87 56.4085 229.04 56.3295 229.221 56.3113C229.402 56.2931 229.583 56.3369 229.736 56.4354C229.913 56.5844 230.035 56.7874 230.085 57.013C230.135 57.2386 230.109 57.4744 230.012 57.6839C229.914 57.8934 229.751 58.065 229.546 58.1723C229.342 58.2796 229.107 58.3166 228.88 58.2776C227.731 58.1785 227.116 57.0602 226.614 56.1616C225.474 54.1153 224.102 52.0839 222.065 50.8364C220.181 49.6825 217.685 49.3346 215.703 50.4476C215.356 50.6423 215.681 51.1666 216.027 50.9718C217.992 49.868 220.485 50.4203 222.235 51.685C223.267 52.4614 224.157 53.4086 224.869 54.4855C225.244 55.031 225.589 55.5975 225.915 56.1746C226.21 56.7518 226.556 57.3016 226.949 57.8177C227.626 58.6351 228.789 59.2176 229.83 58.7193C230.062 58.5933 230.261 58.4148 230.412 58.1981C230.562 57.9814 230.66 57.7325 230.697 57.4712C230.734 57.2099 230.71 56.9436 230.626 56.6935C230.541 56.4434 230.4 56.2165 230.212 56.031C230.027 55.88 229.806 55.7775 229.572 55.7325C229.337 55.6875 229.094 55.7015 228.866 55.7733C228.638 55.845 228.431 55.9722 228.264 56.1435C228.097 56.3148 227.975 56.5248 227.909 56.7548C227.812 57.2945 227.821 57.8481 227.935 58.3844C228.134 59.9138 228.673 61.3792 229.513 62.6726C230.353 63.966 231.473 65.0544 232.789 65.8577C233.13 66.0613 233.419 65.5163 233.079 65.3136Z" fill="#CCCCCC"/>
<path d="M225.152 83.2069L223.531 82.345L220.699 87.6702L222.32 88.5321L225.152 83.2069Z" fill="#CCCCCC"/>
<path d="M200.917 65.5544L202.644 65.0263L200.909 59.3542L199.182 59.8823L200.917 65.5544Z" fill="#B3B3B3"/>
<path d="M170.03 122.538L170.558 124.265L176.23 122.53L175.702 120.803L170.03 122.538Z" fill="#FF6584"/>
<path d="M124.826 123.192C141.388 123.192 154.814 109.766 154.814 93.2045C154.814 76.6429 141.388 63.2171 124.826 63.2171C108.265 63.2171 94.8389 76.6429 94.8389 93.2045C94.8389 109.766 108.265 123.192 124.826 123.192Z" fill="#C8FF7E"/>
<path d="M121.853 104.644C121.178 104.645 120.522 104.427 119.982 104.022L119.95 103.997L112.902 98.6058C112.25 98.0981 111.825 97.353 111.72 96.533C111.614 95.7131 111.838 94.8848 112.34 94.2287C112.843 93.5726 113.585 93.142 114.405 93.0308C115.224 92.9195 116.054 93.1367 116.713 93.6349L121.278 97.1355L132.065 83.0629C132.315 82.7364 132.627 82.4624 132.983 82.2565C133.339 82.0506 133.732 81.9169 134.139 81.863C134.547 81.809 134.961 81.836 135.358 81.9422C135.755 82.0485 136.128 82.232 136.454 82.4823L136.387 82.5752L136.456 82.4823C137.114 82.9879 137.545 83.7341 137.654 84.5572C137.763 85.3802 137.541 86.2128 137.037 86.8723L124.349 103.417C124.055 103.799 123.678 104.107 123.246 104.319C122.814 104.531 122.339 104.64 121.858 104.639L121.853 104.644Z" fill="white"/>
<path d="M104.792 70.8555C104.503 70.8545 104.226 70.7393 104.021 70.5349C103.817 70.3305 103.702 70.0535 103.701 69.7645C103.7 69.6787 103.71 69.5931 103.73 69.5097L109.375 44.6416C109.418 44.4543 109.509 44.2814 109.64 44.1405C109.77 43.9995 109.936 43.8953 110.119 43.8383C110.303 43.7813 110.498 43.7736 110.686 43.8158C110.873 43.8581 111.046 43.9488 111.187 44.079L129.905 61.4106C130.046 61.5412 130.15 61.7064 130.207 61.8899C130.264 62.0733 130.271 62.2685 130.229 62.4558C130.187 62.6432 130.097 62.8162 129.966 62.9576C129.836 63.0989 129.672 63.2037 129.488 63.2613L105.121 70.8064C105.014 70.839 104.903 70.8555 104.792 70.8555Z" fill="#0E392A"/>
<path d="M61.3496 107.228C62.6817 106.896 63.4923 105.547 63.1602 104.215C62.828 102.883 61.4789 102.072 60.1468 102.404C58.8147 102.737 58.0041 104.086 58.3362 105.418C58.6684 106.75 60.0175 107.561 61.3496 107.228Z" fill="#C8FF7E"/>
<path d="M39.2471 48.3228C40.1985 48.0855 40.7775 47.1219 40.5403 46.1705C40.3031 45.219 39.3395 44.64 38.388 44.8773C37.4366 45.1145 36.8576 46.0781 37.0948 47.0295C37.332 47.981 38.2956 48.56 39.2471 48.3228Z" fill="#FF6584"/>
<path d="M49.4715 94.8185C50.4229 94.5813 51.0019 93.6177 50.7647 92.6663C50.5274 91.7148 49.5638 91.1358 48.6124 91.3731C47.6609 91.6103 47.082 92.5739 47.3192 93.5253C47.5564 94.4768 48.52 95.0558 49.4715 94.8185Z" fill="#C8FF7E"/>
<path d="M58.5833 122.557C59.5347 122.32 60.1137 121.356 59.8765 120.405C59.6393 119.453 58.6757 118.874 57.7242 119.111C56.7728 119.349 56.1938 120.312 56.431 121.264C56.6682 122.215 57.6318 122.794 58.5833 122.557Z" fill="#E6E6E6"/>
<path d="M28.1309 65.0053C29.0823 64.7681 29.6613 63.8045 29.4241 62.853C29.1869 61.9016 28.2233 61.3226 27.2718 61.5598C26.3204 61.797 25.7414 62.7606 25.9786 63.7121C26.2158 64.6635 27.1794 65.2425 28.1309 65.0053Z" fill="#CCCCCC"/>
<path d="M75.1153 96.7865C73.7125 96.3097 72.4427 95.5072 71.4099 94.4449C70.3772 93.3826 69.6109 92.0906 69.1738 90.6749C69.052 90.2731 68.8747 89.8219 69.1374 89.4406C69.2329 89.293 69.3757 89.1821 69.5424 89.1261C69.7091 89.0701 69.8899 89.0723 70.0552 89.1323C70.2537 89.2349 70.413 89.4 70.5084 89.602C70.6039 89.8041 70.6302 90.032 70.5834 90.2505C70.5366 90.469 70.4191 90.666 70.2493 90.8112C70.0794 90.9564 69.8665 91.0417 69.6433 91.0539C68.5391 91.2079 67.7174 90.2844 67.0524 89.5452C65.5356 87.8622 63.8069 86.2396 61.6177 85.5008C59.5914 84.8172 57.1637 85.0262 55.5339 86.5017C55.2489 86.76 55.668 87.1834 55.9527 86.9266C57.5689 85.4631 60.0393 85.4495 61.9614 86.2649C63.1007 86.7753 64.1441 87.477 65.0466 88.3395C65.5184 88.7731 65.9649 89.2332 66.3968 89.7067C66.7994 90.1876 67.2439 90.6318 67.7251 91.0341C68.5399 91.6591 69.7613 91.959 70.6369 91.2653C70.8284 91.0966 70.9778 90.8855 71.0731 90.6488C71.1685 90.4121 71.2071 90.1564 71.186 89.9021C71.1648 89.6477 71.0845 89.4019 70.9513 89.1842C70.8182 88.9665 70.636 88.783 70.4192 88.6483C70.2118 88.5457 69.9821 88.4962 69.7508 88.5042C69.5194 88.5122 69.2937 88.5775 69.0938 88.6941C68.894 88.8108 68.7262 88.9753 68.6054 89.1728C68.4847 89.3703 68.4149 89.5946 68.4022 89.8257C68.4264 90.3556 68.5538 90.8758 68.777 91.357C69.2932 92.7567 70.1168 94.0229 71.1871 95.0621C72.2575 96.1013 73.5474 96.8871 74.9618 97.3617C75.3269 97.4804 75.4819 96.9049 75.1176 96.7866L75.1153 96.7865Z" fill="#CCCCCC"/>
<path d="M32.2165 84.7115L33.7124 85.6104L36.6656 80.6955L35.1697 79.7966L32.2165 84.7115Z" fill="#B3B3B3"/>
<path d="M31.9946 126.165C33.3267 125.833 34.1373 124.484 33.8052 123.152C33.4731 121.82 32.1239 121.009 30.7919 121.341C29.4598 121.673 28.6491 123.022 28.9813 124.355C29.3134 125.687 30.6625 126.497 31.9946 126.165Z" fill="#C8FF7E"/>
</svg>
